<?xml version="1.0" standalone="no"?>
<!DOCTYPE svg PUBLIC "-//W3C//DTD SVG 20010904//EN"
    "http://www.w3.org/TR/2001/REC-SVG-20010904/DTD/svg10.dtd">
<svg version="1.0" xmlns="http://www.w3.org/2000/svg"
     width="251.000000pt" height="251.000000pt" viewBox="0 0 251.000000 251.000000"
     preserveAspectRatio="xMidYMid meet">
    <metadata>
        Created by potrace 1.11, written by Peter Selinger 2001-2013
    </metadata>
    <g transform="translate(0.000000,251.000000) scale(0.100000,-0.100000)"
       fill="#ff680a" stroke="none">
        <path d="M1250 2334 l0 -175 73 1 c39 1 96 1 125 1 l52 -1 0 -248 0 -248 -125
1 -125 1 0 -123 c0 -68 -3 -123 -7 -124 -5 -1 -60 -2 -123 -3 l-115 -1 -5
-125 -5 -125 -120 0 -120 0 -2 -119 c-2 -65 -5 -121 -7 -124 -8 -7 -226 -6
-233 2 -11 11 -9 477 1 483 5 4 60 6 122 5 77 0 114 4 116 11 3 7 4 63 3 125
l-1 112 61 1 c33 0 85 0 116 -1 37 -1 60 3 65 11 10 16 12 209 2 229 -5 13
-27 16 -115 15 -59 0 -113 -4 -120 -8 -8 -5 -12 -43 -12 -118 1 -61 -2 -114
-6 -117 -4 -4 -59 -7 -123 -7 l-117 0 -1 -116 c0 -64 -3 -120 -7 -125 -3 -6
-59 -9 -127 -9 l-120 1 2 -248 3 -248 -126 0 -126 0 0 -460 0 -460 1251 0
1251 0 -2 78 c0 42 -2 305 -2 584 l-1 508 -92 -1 c-144 -1 -159 0 -157 14 1 6
1 62 0 123 l-1 111 -107 -2 c-60 -2 -115 -1 -124 1 -14 4 -16 34 -16 252 l0
247 -124 0 -124 0 0 123 c0 101 -3 122 -15 123 -8 1 -64 2 -125 3 l-110 1 -2
160 c0 88 -2 166 -2 173 -1 9 -33 12 -126 12 l-125 0 0 -176z m248 -1043 c2
-93 0 -121 -10 -122 -18 -1 -122 -1 -185 0 l-51 1 0 118 c1 64 4 119 8 122 5
3 59 4 122 4 l113 -1 3 -122z m-997 -396 c4 -75 1 -217 -5 -222 -8 -9 -225 -7
-234 2 -9 9 -10 228 0 235 4 3 59 5 122 5 109 0 116 -1 117 -20z"/>
        <path d="M1004 2155 c-3 -6 -3 -63 -2 -126 l3 -114 125 0 124 0 -1 118 c0 65
-4 121 -7 125 -12 12 -238 9 -242 -3z"/>
    </g>
</svg>
