<?xml version="1.0" encoding="UTF-8"?>
<svg id="uuid-51b9c235-2aab-4e94-87ea-327d86ce36ee" data-name="Calque 1" xmlns="http://www.w3.org/2000/svg" viewBox="0 0 662.42 358.54">
  <defs>
    <style>
      .uuid-371251bd-cbec-42ba-8e65-eb55c67b8974 {
        fill: #be3a34;
        stroke-width: 0px;
      }
    </style>
  </defs>
  <g>
    <path class="uuid-371251bd-cbec-42ba-8e65-eb55c67b8974" d="M200.27,328.49c.43,0,.72.29.72.72v7.99c0,.43-.29.72-.72.72h-18.41c-.43,0-.72-.29-.72-.72v-7.99c0-.43.29-.72.72-.72h18.41Z"/>
    <path class="uuid-371251bd-cbec-42ba-8e65-eb55c67b8974" d="M7.43,357.89c-.43,0-.72-.29-.72-.72v-47.52c0-.43.29-.72.72-.72h11.52c8.93,0,14.4,4.25,14.4,15.41s-5.69,15.41-14.4,15.41h-2.37c-.29,0-.43.14-.43.43v16.99c0,.43-.29.72-.72.72h-7.99ZM23.92,324.34c0-5.55-1.58-7.13-5.26-7.13h-2.09c-.29,0-.43.14-.43.43v13.39c0,.29.14.43.43.43h2.09c3.67,0,5.26-1.58,5.26-7.13Z"/>
    <path class="uuid-371251bd-cbec-42ba-8e65-eb55c67b8974" d="M48.26,309.65c.14-.43.36-.72.79-.72h8.5c.43,0,.72.29.79.72l10.51,47.52c.07.43-.14.72-.58.72h-7.99c-.5,0-.72-.29-.79-.72l-1.58-8.86h-9.29l-1.66,8.86c-.07.43-.29.72-.79.72h-7.99c-.43,0-.65-.29-.58-.72l10.66-47.52ZM56.54,340.83l-3.1-16.99h-.22l-3.24,16.99h6.55Z"/>
    <path class="uuid-371251bd-cbec-42ba-8e65-eb55c67b8974" d="M97.23,357.89c-.43,0-.65-.14-.79-.58l-5.54-18.58h-2.74c-.29,0-.43.14-.43.43v18c0,.43-.29.72-.72.72h-7.99c-.43,0-.72-.29-.72-.72v-47.52c0-.43.29-.72.72-.72h11.66c8.71,0,14.33,4.1,14.33,14.98,0,6.19-2.09,10.22-5.47,12.53l6.7,20.74c.14.36,0,.72-.36.72h-8.64ZM95.51,323.9c0-5.11-1.58-6.7-5.26-6.7h-2.09c-.29,0-.43.14-.43.43v12.53c0,.29.14.43.43.43h2.09c3.67,0,5.26-1.51,5.26-6.7Z"/>
    <path class="uuid-371251bd-cbec-42ba-8e65-eb55c67b8974" d="M116.46,309.65c0-.43.29-.72.72-.72h7.99c.43,0,.72.29.72.72v47.52c0,.43-.29.72-.72.72h-7.99c-.43,0-.72-.29-.72-.72v-47.52Z"/>
    <path class="uuid-371251bd-cbec-42ba-8e65-eb55c67b8974" d="M149.81,358.54c-8.86,0-13.11-4.68-13.25-13.11,0-.43.14-.72.58-.79l7.71-1.22c.5-.07.79.14.79.58.14,4.54,1.44,6.34,4.25,6.34s3.89-1.37,3.89-5.83-.86-5.83-4.54-7.27l-2.95-1.15c-6.91-2.66-9.29-6.34-9.29-14.19,0-8.86,4.25-13.61,12.96-13.61s12.6,4.47,12.96,12.17c0,.43-.22.72-.65.79l-7.35,1.15c-.43.07-.79-.14-.79-.58-.07-3.53-1.29-5.33-3.89-5.33s-3.75,1.58-3.75,4.9c0,3.67.79,4.83,4.61,6.34l2.95,1.15c6.7,2.59,9.29,6.19,9.29,14.47,0,10.01-3.82,15.19-13.54,15.19Z"/>
    <path class="uuid-371251bd-cbec-42ba-8e65-eb55c67b8974" d="M229.52,309.65c.14-.43.36-.72.79-.72h8.5c.43,0,.72.29.79.72l10.51,47.52c.07.43-.14.72-.58.72h-7.99c-.5,0-.72-.29-.79-.72l-1.58-8.86h-9.29l-1.66,8.86c-.07.43-.29.72-.79.72h-7.99c-.43,0-.65-.29-.58-.72l10.66-47.52ZM237.8,340.83l-3.1-16.99h-.22l-3.24,16.99h6.55Z"/>
    <path class="uuid-371251bd-cbec-42ba-8e65-eb55c67b8974" d="M258.4,344.64v-35c0-.43.29-.72.72-.72h7.99c.43,0,.72.29.72.72v36.15c0,2.59,1.37,4.25,3.74,4.25s3.82-1.66,3.82-4.25v-36.15c0-.43.29-.72.72-.72h7.99c.43,0,.72.29.72.72v35c0,9.22-5.04,13.9-13.25,13.9s-13.18-4.68-13.18-13.9Z"/>
    <path class="uuid-371251bd-cbec-42ba-8e65-eb55c67b8974" d="M296.78,309.65c0-.43.29-.72.72-.72h12.39c9.07,0,13.11,4.18,13.11,12.75,0,5.98-2.02,9-5.62,10.58v.14c3.6,1.08,6.19,4.54,6.19,11.09,0,10.8-4.9,14.4-14.48,14.4h-11.59c-.43,0-.72-.29-.72-.72v-47.52ZM308.74,329.02c3.67,0,4.83-1.22,4.83-6.05s-1.15-6.05-4.83-6.05h-2.09c-.29,0-.43.14-.43.43v11.23c0,.29.14.43.43.43h2.09ZM306.65,349.9h2.09c3.96,0,5.33-1.58,5.33-6.77s-1.37-6.63-5.33-6.63h-2.09c-.29,0-.43.14-.43.43v12.53c0,.29.14.43.43.43Z"/>
    <path class="uuid-371251bd-cbec-42ba-8e65-eb55c67b8974" d="M334.3,309.65c0-.43.29-.72.72-.72h21.39c.43,0,.72.29.72.72v7.06c0,.43-.29.72-.72.72h-12.24c-.29,0-.43.14-.43.43v10.66c0,.29.14.43.43.43h10.58c.43,0,.72.29.72.72v7.06c0,.43-.29.72-.72.72h-10.58c-.29,0-.43.14-.43.43v11.09c0,.29.14.43.43.43h12.24c.43,0,.72.29.72.72v7.06c0,.43-.29.72-.72.72h-21.39c-.43,0-.72-.29-.72-.72v-47.52Z"/>
    <path class="uuid-371251bd-cbec-42ba-8e65-eb55c67b8974" d="M386.8,357.89c-.43,0-.65-.14-.79-.58l-5.54-18.58h-2.74c-.29,0-.43.14-.43.43v18c0,.43-.29.72-.72.72h-7.99c-.43,0-.72-.29-.72-.72v-47.52c0-.43.29-.72.72-.72h11.67c8.71,0,14.33,4.1,14.33,14.98,0,6.19-2.09,10.22-5.47,12.53l6.7,20.74c.14.36,0,.72-.36.72h-8.64ZM385.07,323.9c0-5.11-1.58-6.7-5.26-6.7h-2.09c-.29,0-.43.14-.43.43v12.53c0,.29.14.43.43.43h2.09c3.67,0,5.26-1.51,5.26-6.7Z"/>
    <path class="uuid-371251bd-cbec-42ba-8e65-eb55c67b8974" d="M413.09,357.89c-.43,0-.65-.29-.79-.72l-9.72-47.52c-.14-.43.07-.72.58-.72h8.14c.43,0,.72.22.79.72l4.97,30.96h.22l4.75-30.96c.07-.5.36-.72.79-.72h7.99c.5,0,.72.29.58.72l-9.79,47.52c-.07.43-.29.72-.72.72h-7.78Z"/>
    <path class="uuid-371251bd-cbec-42ba-8e65-eb55c67b8974" d="M441.17,309.65c0-.43.29-.72.72-.72h7.99c.43,0,.72.29.72.72v47.52c0,.43-.29.72-.72.72h-7.99c-.43,0-.72-.29-.72-.72v-47.52Z"/>
    <path class="uuid-371251bd-cbec-42ba-8e65-eb55c67b8974" d="M462.71,309.65c0-.43.29-.72.72-.72h7.99c.43,0,.72.29.72.72v39.32c0,.29.14.43.43.43h12.38c.43,0,.72.29.72.72v7.06c0,.43-.29.72-.72.72h-21.53c-.43,0-.72-.29-.72-.72v-47.52Z"/>
    <path class="uuid-371251bd-cbec-42ba-8e65-eb55c67b8974" d="M495.91,309.65c0-.43.29-.72.72-.72h7.99c.43,0,.72.29.72.72v39.32c0,.29.14.43.43.43h12.38c.43,0,.72.29.72.72v7.06c0,.43-.29.72-.72.72h-21.53c-.43,0-.72-.29-.72-.72v-47.52Z"/>
    <path class="uuid-371251bd-cbec-42ba-8e65-eb55c67b8974" d="M529.11,309.65c0-.43.29-.72.72-.72h7.99c.43,0,.72.29.72.72v47.52c0,.43-.29.72-.72.72h-7.99c-.43,0-.72-.29-.72-.72v-47.52Z"/>
    <path class="uuid-371251bd-cbec-42ba-8e65-eb55c67b8974" d="M550.64,309.65c0-.43.29-.72.72-.72h21.39c.43,0,.72.29.72.72v7.06c0,.43-.29.72-.72.72h-12.24c-.29,0-.43.14-.43.43v10.66c0,.29.14.43.43.43h10.58c.43,0,.72.29.72.72v7.06c0,.43-.29.72-.72.72h-10.58c-.29,0-.43.14-.43.43v11.09c0,.29.14.43.43.43h12.24c.43,0,.72.29.72.72v7.06c0,.43-.29.72-.72.72h-21.39c-.43,0-.72-.29-.72-.72v-47.52Z"/>
    <path class="uuid-371251bd-cbec-42ba-8e65-eb55c67b8974" d="M603.14,357.89c-.43,0-.65-.14-.79-.58l-5.54-18.58h-2.74c-.29,0-.43.14-.43.43v18c0,.43-.29.72-.72.72h-7.99c-.43,0-.72-.29-.72-.72v-47.52c0-.43.29-.72.72-.72h11.67c8.71,0,14.33,4.1,14.33,14.98,0,6.19-2.09,10.22-5.47,12.53l6.7,20.74c.14.36,0,.72-.36.72h-8.64ZM601.41,323.9c0-5.11-1.58-6.7-5.26-6.7h-2.09c-.29,0-.43.14-.43.43v12.53c0,.29.14.43.43.43h2.09c3.67,0,5.26-1.51,5.26-6.7Z"/>
    <path class="uuid-371251bd-cbec-42ba-8e65-eb55c67b8974" d="M634.18,358.54c-8.86,0-13.11-4.68-13.25-13.11,0-.43.14-.72.58-.79l7.71-1.22c.5-.07.79.14.79.58.14,4.54,1.44,6.34,4.25,6.34s3.89-1.37,3.89-5.83-.86-5.83-4.54-7.27l-2.95-1.15c-6.91-2.66-9.29-6.34-9.29-14.19,0-8.86,4.25-13.61,12.96-13.61s12.6,4.47,12.96,12.17c0,.43-.22.72-.65.79l-7.35,1.15c-.43.07-.79-.14-.79-.58-.07-3.53-1.29-5.33-3.89-5.33s-3.74,1.58-3.74,4.9c0,3.67.79,4.83,4.61,6.34l2.95,1.15c6.7,2.59,9.29,6.19,9.29,14.47,0,10.01-3.82,15.19-13.54,15.19Z"/>
  </g>
  <g>
    <g>
      <path class="uuid-371251bd-cbec-42ba-8e65-eb55c67b8974" d="M535.55,21.4h105.99c.26,0,.47.21.47.46v51.2c0,.26-.21.46-.47.46h-69.61c-1.48,0-2.68,1.2-2.68,2.67v14.97c0,1.48,1.2,2.68,2.68,2.68h87.8c1.48,0,2.68-1.2,2.68-2.67V3.75c0-1.48-1.21-2.68-2.69-2.68h-124.18c-1.48,0-2.68,1.2-2.68,2.68v14.97c0,1.48,1.2,2.68,2.68,2.68Z"/>
      <path class="uuid-371251bd-cbec-42ba-8e65-eb55c67b8974" d="M659.73,109.75h-105.99c-.26,0-.47-.21-.47-.46v-51.2c0-.26.21-.46.47-.46h69.61c1.48,0,2.68-1.2,2.68-2.67v-14.97c0-1.48-1.2-2.68-2.68-2.68h-87.8c-1.48,0-2.68,1.2-2.68,2.68v87.43c0,1.48,1.21,2.68,2.69,2.68h124.18c1.48,0,2.68-1.2,2.68-2.68v-14.97c0-1.48-1.2-2.68-2.68-2.68Z"/>
    </g>
    <g>
      <path class="uuid-371251bd-cbec-42ba-8e65-eb55c67b8974" d="M32.51,172.75c4.48,0,9.71,1.63,10.37,14.25,0,.89.33,1.66.92,2.17.62.52,1.46.73,2.39.57l14.96-2.59c1.59-.27,2.47-1.63,2.2-3.41-1.1-20.35-11.96-31.1-31.4-31.1-15.07,0-25.27,6.91-29.5,19.98-1.74,5.43-2.45,11.07-2.45,45.61s.71,40.19,2.46,45.62c4.22,13.07,14.42,19.98,29.5,19.98,19.44,0,30.3-10.75,31.4-31.1.27-1.78-.61-3.14-2.2-3.41l-14.98-2.59c-.92-.16-1.76.05-2.38.57-.6.5-.92,1.27-.92,2.11-.66,12.68-5.89,14.31-10.37,14.31-4.86,0-7.54-1.87-8.94-6.26-.86-2.76-1.25-5.41-1.25-39.22s.38-36.46,1.24-39.22c1.4-4.39,4.08-6.27,8.94-6.27Z"/>
      <path class="uuid-371251bd-cbec-42ba-8e65-eb55c67b8974" d="M102.36,152.64c-15.55,0-26.48,7.22-30.79,20.34-1.96,5.88-2.46,11.1-2.46,45.25s.5,39.37,2.46,45.25c4.31,13.12,15.24,20.34,30.79,20.34s26.3-7.22,30.6-20.34c1.96-5.88,2.46-11.09,2.46-45.25s-.5-39.37-2.46-45.25c-4.31-13.12-15.18-20.34-30.61-20.34ZM111.86,257.45h0c-1.17,3.87-4.81,6.26-9.49,6.26s-8.5-2.4-9.68-6.26c-1.07-3.38-1.24-4.91-1.24-39.22s.18-35.84,1.25-39.23c1.17-3.86,4.88-6.25,9.68-6.25s8.32,2.4,9.5,6.26c1.07,3.38,1.24,4.91,1.24,39.22s-.18,35.84-1.24,39.22Z"/>
      <path class="uuid-371251bd-cbec-42ba-8e65-eb55c67b8974" d="M213.05,154.3h-13.68c-1.7,0-2.94,1.24-2.94,2.94v82.03l-22.07-82.33c-.51-1.78-1.7-2.64-3.64-2.64h-19.59c-1.7,0-2.94,1.24-2.94,2.94v121.98c0,1.7,1.24,2.94,2.94,2.94h13.68c1.7,0,2.94-1.24,2.94-2.94v-82.9l23.37,83.2c.51,1.78,1.7,2.64,3.64,2.64h18.3c1.7,0,2.94-1.24,2.94-2.94v-121.98c0-1.7-1.24-2.94-2.94-2.94Z"/>
      <path class="uuid-371251bd-cbec-42ba-8e65-eb55c67b8974" d="M262.95,154.3h-29.02c-1.7,0-2.94,1.24-2.94,2.94v121.98c0,1.7,1.24,2.94,2.94,2.94h29.02c16.59,0,26.91-6.83,31.53-20.9,2.16-6.68,3.19-14.82,3.19-43.03s-1.03-36.35-3.2-43.03c-4.62-14.06-14.94-20.9-31.53-20.9ZM275.35,218.23c0,24.45-.7,30.93-2.16,35.49-2.06,5.84-5.73,8.33-12.28,8.33h-7.96v-87.64h7.96c6.55,0,10.22,2.49,12.27,8.3,1.47,4.58,2.17,11.07,2.17,35.52Z"/>
      <path class="uuid-371251bd-cbec-42ba-8e65-eb55c67b8974" d="M341.48,152.64c-15.55,0-26.48,7.22-30.79,20.34-1.96,5.88-2.46,11.1-2.46,45.25s.5,39.38,2.46,45.25c4.31,13.11,15.24,20.34,30.79,20.34s26.3-7.22,30.6-20.34c1.96-5.88,2.46-11.09,2.46-45.25s-.5-39.37-2.46-45.25c-4.31-13.12-15.18-20.34-30.61-20.34ZM331.81,179c1.17-3.86,4.88-6.25,9.68-6.25s8.32,2.4,9.5,6.26c1.07,3.38,1.24,4.91,1.24,39.22s-.18,35.84-1.24,39.22h0c-1.17,3.87-4.81,6.26-9.49,6.26s-8.5-2.4-9.68-6.26c-1.07-3.38-1.24-4.91-1.24-39.22s.18-35.84,1.25-39.23Z"/>
      <path class="uuid-371251bd-cbec-42ba-8e65-eb55c67b8974" d="M437.78,225.38c9.79-5.97,14.75-16.95,14.75-32.65,0-26.21-11.74-38.42-36.94-38.42h-25.32c-1.7,0-2.94,1.24-2.94,2.94v121.98c0,1.7,1.24,2.94,2.94,2.94h16.08c1.7,0,2.94-1.24,2.94-2.94v-48.44h8.64l15.13,49.4c.54,1.35,1.51,1.98,3.05,1.98h17.19c.73,0,1.37-.33,1.77-.91.45-.66.51-1.57.2-2.37l-17.47-53.5ZM409.28,211.02v-36.61h6.49c9.38,0,14.8,3,14.8,18.31,0,13.69-3.74,18.31-14.8,18.31h-6.49v-.02Z"/>
      <path class="uuid-371251bd-cbec-42ba-8e65-eb55c67b8974" d="M495.78,172.75c4.48,0,9.71,1.63,10.37,14.25,0,.89.33,1.66.92,2.17.62.52,1.46.73,2.39.57l14.96-2.59c1.59-.27,2.47-1.63,2.2-3.41-1.1-20.35-11.96-31.1-31.4-31.1-15.07,0-25.27,6.91-29.5,19.98-1.74,5.43-2.45,11.07-2.45,45.61s.71,40.19,2.46,45.62c4.22,13.07,14.42,19.98,29.5,19.98,19.44,0,30.3-10.75,31.4-31.1.27-1.78-.61-3.14-2.2-3.41l-14.98-2.59c-.92-.16-1.76.05-2.38.57-.6.5-.92,1.27-.92,2.11-.66,12.68-5.89,14.31-10.37,14.31-4.86,0-7.54-1.87-8.94-6.26-.86-2.76-1.24-5.41-1.24-39.22s.38-36.46,1.24-39.22c1.4-4.39,4.08-6.27,8.94-6.27Z"/>
      <path class="uuid-371251bd-cbec-42ba-8e65-eb55c67b8974" d="M589.11,154.3h-51.56c-1.7,0-2.94,1.24-2.94,2.94v121.98c0,1.7,1.24,2.94,2.94,2.94h51.56c1.7,0,2.94-1.24,2.94-2.94v-14.23c0-1.7-1.24-2.94-2.94-2.94h-32.54v-34.41h28.11c1.7,0,2.94-1.24,2.94-2.94v-14.23c0-1.7-1.24-2.94-2.94-2.94h-28.11v-33.12h32.54c1.7,0,2.94-1.24,2.94-2.94v-14.23c0-1.7-1.24-2.94-2.94-2.94Z"/>
      <path class="uuid-371251bd-cbec-42ba-8e65-eb55c67b8974" d="M658.78,154.3h-60.43c-1.7,0-2.94,1.24-2.94,2.94v14.23c0,1.7,1.24,2.94,2.94,2.94h19.24v104.81c0,1.7,1.24,2.94,2.94,2.94h16.08c1.7,0,2.94-1.24,2.94-2.94v-104.81h19.24c1.7,0,2.94-1.24,2.94-2.94v-14.23c0-1.7-1.24-2.94-2.94-2.94Z"/>
    </g>
    <g>
      <path class="uuid-371251bd-cbec-42ba-8e65-eb55c67b8974" d="M61.15,96.67l-14.98-2.59c-.92-.15-1.76.05-2.38.57-.59.5-.92,1.27-.92,2.11-.66,12.68-5.89,14.31-10.37,14.31-4.86,0-7.54-1.87-8.94-6.26-.86-2.76-1.25-5.41-1.25-39.22s.38-36.46,1.24-39.22c1.4-4.39,4.08-6.26,8.94-6.26,4.48,0,9.71,1.63,10.37,14.25,0,.89.33,1.66.92,2.17.62.52,1.46.72,2.39.57l14.96-2.59c1.59-.27,2.47-1.63,2.2-3.41C62.25,10.75,51.39,0,31.95,0,16.88,0,6.68,6.91,2.45,19.98.71,25.41,0,31.05,0,65.59s.71,40.19,2.46,45.61c4.22,13.07,14.42,19.97,29.5,19.97,19.44,0,30.3-10.75,31.4-31.1.27-1.78-.61-3.14-2.2-3.41Z"/>
      <path class="uuid-371251bd-cbec-42ba-8e65-eb55c67b8974" d="M111.57,4.42c-.28-1.68-1.5-2.76-3.11-2.76h-15.52c-1.46,0-2.49.87-3.07,2.59l-27.21,122.14c-.15.88.04,1.69.53,2.26.47.55,1.19.86,2.03.86h15.71c.99,0,2.71-.36,3.1-2.73l4.82-24.44h23.16l4.81,24.41c.4,2.4,2.12,2.76,3.11,2.76h15.71c.84,0,1.56-.3,2.03-.86.49-.57.67-1.37.52-2.31L111.57,4.42ZM108.44,83.54h-16.02l8.17-41.36,7.85,41.36Z"/>
      <path class="uuid-371251bd-cbec-42ba-8e65-eb55c67b8974" d="M228.4,1.66h-15.89c-2.16,0-3.5.89-4.01,2.64l-19.66,68.45L168.64,4.3c-.5-1.75-1.85-2.64-4.01-2.64h-16.08c-1.7,0-2.94,1.24-2.94,2.94v121.98c0,1.7,1.24,2.94,2.94,2.94h14.23c1.7,0,2.94-1.24,2.94-2.94V51.02l15.25,53.54c.56,1.67,1.78,2.6,3.44,2.6h8.13c1.66,0,2.88-.92,3.45-2.64l15.23-53.49v75.56c0,1.7,1.24,2.94,2.94,2.94h14.23c1.7,0,2.94-1.24,2.94-2.94V4.6c0-1.7-1.24-2.94-2.94-2.94Z"/>
      <path class="uuid-371251bd-cbec-42ba-8e65-eb55c67b8974" d="M274.59,1.66h-25.32c-1.7,0-2.94,1.24-2.94,2.94v121.98c0,1.7,1.24,2.94,2.94,2.94h16.08c1.7,0,2.94-1.24,2.94-2.94v-45.48h6.3c24.74,0,36.76-12.99,36.76-39.72S299.67,1.66,274.59,1.66ZM289.39,41.38c0,16.48-5.2,19.61-14.8,19.61h-6.3V21.77h6.3c9.6,0,14.8,3.12,14.8,19.61Z"/>
      <path class="uuid-371251bd-cbec-42ba-8e65-eb55c67b8974" d="M384.18,1.66h-16.08c-1.7,0-2.94,1.24-2.94,2.94v94.44c0,7.65-3.78,12.03-10.37,12.03s-10.55-4.5-10.55-12.03V4.6c0-1.7-1.24-2.94-2.94-2.94h-16.08c-1.7,0-2.94,1.24-2.94,2.94v91.85c0,22.07,11.85,34.73,32.51,34.73s32.32-12.33,32.32-34.73V4.6c0-1.7-1.23-2.94-2.94-2.94Z"/>
      <path class="uuid-371251bd-cbec-42ba-8e65-eb55c67b8974" d="M440.01,54.59l-7.58-2.96c-9.57-3.72-11.5-6.75-11.5-18.02,0-9.73,3.2-14.06,10.37-14.06s10.37,4.63,10.74,14.99c0,.79.31,1.49.87,1.97.62.52,1.5.74,2.41.59l14.78-2.22.18-.04c.6-.2,2.41-.8,2.41-3.13-1.21-21.34-11.66-31.71-31.95-31.71s-31.58,11.62-31.58,34.54c0,20.45,5.86,29.66,23.24,36.5l7.57,2.96c9.4,3.72,11.69,7.81,11.69,20.79,0,14.02-4.11,16.84-10.74,16.84-8,0-11.32-4.89-11.85-17.39,0-.87-.32-1.63-.91-2.14-.43-.37-1.18-.77-2.4-.6l-15.52,2.59c-.89.15-2.39.75-2.39,3.14.57,22.53,11.51,33.96,32.51,33.96,22.99,0,33.25-11.96,33.25-38.79,0-21.05-6.18-30.94-23.61-37.79Z"/>
    </g>
  </g>
</svg>